<svg viewBox="2, -1 6 1" xmlns="http://www.w3.org/2000/svg">
	<style>
		svg
		{
			width: 1200px;
			height: 600px;
		}
		text
		{
			font-family: Times New Roman, serif;
		}
		rect.background
		{
			stroke: none;
			fill: black;
		}
		path.distribution
		{
			fill: #DDD;
			stroke: none;
		}
		line.axis
		{
			stroke: black;
			stroke-width: 0.02;
			stroke-linecap: butt;
		}
		path.distribution-surface
		{
			stroke: black;
			stroke-width: 0.02;
			stroke-linecap: round;
			stroke-linejoin: bevel;
			fill: none;
		}
		line.guide
		{
			stroke: black;
			stroke-width: 0.01;
			stroke-linecap: butt;
			stroke-dasharray: 0.05, 0.05;
		}
		line.hatch-mark
		{
			stroke: black;
			stroke-width: 0.02;
			stroke-linecap: round;
		}
		line.span
		{
			stroke: black;
			stroke-width: 0.01;
			stroke-linecap: round;
		}
		ellipse.vertex
		{
			stroke: black;
			stroke-width: 0.02;
			fill: white;
		}
		text.variable
		{
			fill: black;
			font-size: 0.2px;
			font-style: italic;
			text-anchor: middle;
			dominant-baseline: alphabetic;
		}
	</style>
	<style>
		rect.background
		{
			fill: white;
		}
		path.distribution
		{
			fill: black;
		}
		ellipse.vertex
		{
			fill: black;
		}
	</style>

	<script type="text/javascript">
		//<![CDATA[
		s = "";
		eventRate = 1;
		for (i = 0; i <= 8; ++i)
		{
			n = i * 0.5;
			x = n + 3;
			y = Math.pow(Math.E, -n * eventRate) * 1.2;
			m = Math.pow(Math.E, -n * eventRate) * -eventRate * 1.2;
			s = s + (x - 0.5/3).toFixed(3) + "," + (-(y - m * 0.5/3)).toFixed(4) + " " + x.toFixed(3) + "," + (-y).toFixed(4) + " C " + (x + 0.5/3).toFixed(3) + "," + (-(y + m * 0.5/3)).toFixed(4) + " ";
		}
		console.log(s);
		//]]>
	</script>

	<rect class="background" x="0" y="-2" width="10" height="5" />
	<path class="distribution" d="M 3,0 L 3.000,-1.2000 C 3.167,-1.0000 3.333,-0.8491 3.500,-0.7278 C 3.667,-0.6065 3.833,-0.5150 4.000,-0.4415 C 4.167,-0.3679 4.333,-0.3124 4.500,-0.2678 C 4.667,-0.2231 4.833,-0.1895 5.000,-0.1624 C 5.167,-0.1353 5.333,-0.1149 5.500,-0.0985 C 5.667,-0.0821 5.833,-0.0697 6.000,-0.0597 C 6.167,-0.0498 6.333,-0.0423 6.500,-0.0362 C 6.667,-0.0302 6.833,-0.0256 7.000,-0.0220 L 7,0 Z" />

	<line class="axis" x1="0" y1="0" x2="10" y2="0" />

	<path class="distribution-surface" d="M 3.000,-1.2000 C 3.167,-1.0000 3.333,-0.8491 3.500,-0.7278 C 3.667,-0.6065 3.833,-0.5150 4.000,-0.4415 C 4.167,-0.3679 4.333,-0.3124 4.500,-0.2678 C 4.667,-0.2231 4.833,-0.1895 5.000,-0.1624 C 5.167,-0.1353 5.333,-0.1149 5.500,-0.0985 C 5.667,-0.0821 5.833,-0.0697 6.000,-0.0597 C 6.167,-0.0498 6.333,-0.0423 6.500,-0.0362 C 6.667,-0.0302 6.833,-0.0256 7.000,-0.0220" />

	<line class="guide" x1="3" y1="0" x2="3" y2="-1.2" />
	<line class="guide" x1="4" y1="0" x2="4" y2="-0.4415" />
	<line class="hatch-mark" x1="3" y1="-0.05" x2="3" y2="0.05" />
	<line class="hatch-mark" x1="7" y1="-0.05" x2="7" y2="0.05" />

	<line class="span" x1="3" y1="-1.25" x2="4" y2="-1.25" />
	<line class="span" x1="3" y1="-1.2" x2="3" y2="-1.3" />
	<line class="span" x1="4" y1="-1.2" x2="4" y2="-1.3" />
	
	<text class="variable" x="3" y="0.25">0</text>
	<text class="variable" x="3.5" y="-1.3">event rate</text>
	<text class="variable" x="7" y="0.25">max</text>
</svg>
