<svg viewBox="2, -1 6 1" xmlns="http://www.w3.org/2000/svg">
	<style>
		svg
		{
			width: 1200px;
			height: 600px;
		}
		text
		{
			font-family: Times New Roman, serif;
		}
		rect.background
		{
			stroke: none;
			fill: black;
		}
		path.distribution
		{
			fill: #DDD;
			stroke: none;
		}
		line.axis
		{
			stroke: black;
			stroke-width: 0.02;
			stroke-linecap: butt;
		}
		path.distribution-surface
		{
			stroke: black;
			stroke-width: 0.02;
			stroke-linecap: butt;
			stroke-linejoin: bevel;
			fill: none;
		}
		line.guide
		{
			stroke: black;
			stroke-width: 0.01;
			stroke-linecap: butt;
			stroke-dasharray: 0.05, 0.05;
		}
		line.hatch-mark
		{
			stroke: black;
			stroke-width: 0.02;
			stroke-linecap: round;
		}
		line.span
		{
			stroke: black;
			stroke-width: 0.01;
			stroke-linecap: round;
		}
		ellipse.vertex
		{
			stroke: black;
			stroke-width: 0.02;
			fill: white;
		}
		text.variable
		{
			fill: black;
			font-size: 0.2px;
			font-style: italic;
			text-anchor: middle;
			dominant-baseline: alphabetic;
		}
	</style>
	<style>
		rect.background
		{
			fill: white;
		}
		path.distribution
		{
			fill: black;
		}
		ellipse.vertex
		{
			fill: black;
		}
	</style>

	<script type="text/javascript">
		//<![CDATA[
		s = "";
		variance = 0.5;
		for (i = -4; i <= 4; ++i)
		{
			n = i * 0.5;
			x = n + 5;
			y = Math.pow(Math.E, n * n / (-2.0 * variance)) * 1.2;
			m = -n * Math.pow(Math.E, n * n / (-2.0 * variance)) / variance * 1.2;
			s = s + (x - 0.5/3).toFixed(3) + "," + (-(y - m * 0.5/3)).toFixed(4) + " " + x.toFixed(3) + "," + (-y).toFixed(4) + " C " + (x + 0.5/3).toFixed(3) + "," + (-(y + m * 0.5/3)).toFixed(4) + " ";
		}
		console.log(s);
		//]]>
	</script>

	<rect class="background" x="0" y="-2" width="10" height="5" />
	<path class="distribution" d="M 3,0 L 3.000,-0.0220 C 3.167,-0.0366 3.333,-0.0632 3.500,-0.1265 C 3.667,-0.1897 3.833,-0.2943 4.000,-0.4415 C 4.167,-0.5886 4.333,-0.7788 4.500,-0.9346 C 4.667,-1.0903 4.833,-1.2000 5.000,-1.2000 C 5.167,-1.2000 5.333,-1.0903 5.500,-0.9346 C 5.667,-0.7788 5.833,-0.5886 6.000,-0.4415 C 6.167,-0.2943 6.333,-0.1897 6.500,-0.1265 C 6.667,-0.0632 6.833,-0.0366 7.000,-0.0220 L 7,0 Z" />

	<line class="axis" x1="0" y1="0" x2="10" y2="0" />

	<path class="distribution-surface" d="M 3.000,-0.0220 C 3.167,-0.0366 3.333,-0.0632 3.500,-0.1265 C 3.667,-0.1897 3.833,-0.2943 4.000,-0.4415 C 4.167,-0.5886 4.333,-0.7788 4.500,-0.9346 C 4.667,-1.0903 4.833,-1.2000 5.000,-1.2000 C 5.167,-1.2000 5.333,-1.0903 5.500,-0.9346 C 5.667,-0.7788 5.833,-0.5886 6.000,-0.4415 C 6.167,-0.2943 6.333,-0.1897 6.500,-0.1265 C 6.667,-0.0632 6.833,-0.0366 7.000,-0.0220" />

	<line class="guide" x1="5" y1="0" x2="5" y2="-1.2" />
	<line class="guide" x1="5.707" y1="0" x2="5.707" y2="-0.7278" />
	<line class="hatch-mark" x1="3" y1="-0.05" x2="3" y2="0.05" />
	<line class="hatch-mark" x1="5" y1="-0.05" x2="5" y2="0.05" />
	<line class="hatch-mark" x1="7" y1="-0.05" x2="7" y2="0.05" />

	<line class="span" x1="5" y1="-1.25" x2="5.707" y2="-1.25" />
	<line class="span" x1="5" y1="-1.2" x2="5" y2="-1.3" />
	<line class="span" x1="5.707" y1="-1.2" x2="5.707" y2="-1.3" />
	
	<text class="variable" x="3" y="0.25">min</text>
	<text class="variable" x="5" y="0.25">mean</text>
	<text class="variable" x="5.353" y="-1.3">std-dev</text>
	<text class="variable" x="7" y="0.25">max</text>
</svg>
